<?xml version="1.0" encoding="utf-8" standalone="no"?>
<!DOCTYPE svg PUBLIC "-//W3C//DTD SVG 1.1//EN"
  "http://www.w3.org/Graphics/SVG/1.1/DTD/svg11.dtd">
<svg xmlns:xlink="http://www.w3.org/1999/xlink" width="291.6pt" height="291.6pt" viewBox="0 0 291.6 291.6" xmlns="http://www.w3.org/2000/svg" version="1.1">
 <metadata>
  <rdf:RDF xmlns:dc="http://purl.org/dc/elements/1.1/" xmlns:cc="http://creativecommons.org/ns#" xmlns:rdf="http://www.w3.org/1999/02/22-rdf-syntax-ns#">
   <cc:Work>
    <dc:type rdf:resource="http://purl.org/dc/dcmitype/StillImage"/>
    <dc:date>2023-12-27T15:32:21.011212</dc:date>
    <dc:format>image/svg+xml</dc:format>
    <dc:creator>
     <cc:Agent>
      <dc:title>Matplotlib v3.8.0, https://matplotlib.org/</dc:title>
     </cc:Agent>
    </dc:creator>
   </cc:Work>
  </rdf:RDF>
 </metadata>
 <defs>
  <style type="text/css">*{stroke-linejoin: round; stroke-linecap: butt}</style>
 </defs>
 <g id="figure_1">
  <g id="patch_1">
   <path d="M 0 291.6 
L 291.6 291.6 
L 291.6 0 
L 0 0 
L 0 291.6 
z
" style="fill: none"/>
  </g>
  <g id="axes_1">
   <g id="patch_2">
    <path d="M 7.2 284.4 
L 284.4 284.4 
L 284.4 7.2 
L 7.2 7.2 
L 7.2 284.4 
z
" style="fill: none"/>
   </g>
   <g id="patch_3">
    <path d="M 145.8 208.17 
C 162.340717 208.17 178.206197 201.598303 189.90225 189.90225 
C 201.598303 178.206197 208.17 162.340717 208.17 145.8 
C 208.17 129.259283 201.598303 113.393803 189.90225 101.69775 
C 178.206197 90.001697 162.340717 83.43 145.8 83.43 
C 129.259283 83.43 113.393803 90.001697 101.69775 101.69775 
C 90.001697 113.393803 83.43 129.259283 83.43 145.8 
C 83.43 162.340717 90.001697 178.206197 101.69775 189.90225 
C 113.393803 201.598303 129.259283 208.17 145.8 208.17 
z
" clip-path="url(#pa5e5481e16)" style="fill: #ffffff"/>
   </g>
   <g id="patch_4">
    <path d="M 145.8 208.17 
C 162.340717 208.17 178.206197 201.598303 189.90225 189.90225 
C 201.598303 178.206197 208.17 162.340717 208.17 145.8 
C 208.17 129.259283 201.598303 113.393803 189.90225 101.69775 
C 178.206197 90.001697 162.340717 83.43 145.8 83.43 
C 129.259283 83.43 113.393803 90.001697 101.69775 101.69775 
C 90.001697 113.393803 83.43 129.259283 83.43 145.8 
C 83.43 162.340717 90.001697 178.206197 101.69775 189.90225 
C 113.393803 201.598303 129.259283 208.17 145.8 208.17 
z
" style="fill: #8c2981; stroke: #8c2981; stroke-linejoin: miter"/>
   </g>
   <g id="patch_5">
    <path d="M 145.8 192.5775 
C 158.205538 192.5775 170.104647 187.648728 178.876687 178.876687 
C 187.648728 170.104647 192.5775 158.205538 192.5775 145.8 
C 192.5775 133.394462 187.648728 121.495353 178.876687 112.723313 
C 170.104647 103.951272 158.205538 99.0225 145.8 99.0225 
C 133.394462 99.0225 121.495353 103.951272 112.723313 112.723313 
C 103.951272 121.495353 99.0225 133.394462 99.0225 145.8 
C 99.0225 158.205538 103.951272 170.104647 112.723313 178.876687 
C 121.495353 187.648728 133.394462 192.5775 145.8 192.5775 
z
" clip-path="url(#pa5e5481e16)" style="fill: #ffffff"/>
   </g>
   <g id="patch_6">
    <path d="M 145.8 192.5775 
C 158.205538 192.5775 170.104647 187.648728 178.876687 178.876687 
C 187.648728 170.104647 192.5775 158.205538 192.5775 145.8 
C 192.5775 133.394462 187.648728 121.495353 178.876687 112.723313 
C 170.104647 103.951272 158.205538 99.0225 145.8 99.0225 
C 133.394462 99.0225 121.495353 103.951272 112.723313 112.723313 
C 103.951272 121.495353 99.0225 133.394462 99.0225 145.8 
C 99.0225 158.205538 103.951272 170.104647 112.723313 178.876687 
C 121.495353 187.648728 133.394462 192.5775 145.8 192.5775 
z
" style="fill: #d8456c; stroke: #d8456c; stroke-linejoin: miter"/>
   </g>
   <g id="patch_7">
    <path d="M 145.8 176.985 
C 154.070359 176.985 162.003098 173.699152 167.851125 167.851125 
C 173.699152 162.003098 176.985 154.070359 176.985 145.8 
C 176.985 137.529641 173.699152 129.596902 167.851125 123.748875 
C 162.003098 117.900848 154.070359 114.615 145.8 114.615 
C 137.529641 114.615 129.596902 117.900848 123.748875 123.748875 
C 117.900848 129.596902 114.615 137.529641 114.615 145.8 
C 114.615 154.070359 117.900848 162.003098 123.748875 167.851125 
C 129.596902 173.699152 137.529641 176.985 145.8 176.985 
z
" clip-path="url(#pa5e5481e16)" style="fill: #ffffff"/>
   </g>
   <g id="patch_8">
    <path d="M 145.8 176.985 
C 154.070359 176.985 162.003098 173.699152 167.851125 167.851125 
C 173.699152 162.003098 176.985 154.070359 176.985 145.8 
C 176.985 137.529641 173.699152 129.596902 167.851125 123.748875 
C 162.003098 117.900848 154.070359 114.615 145.8 114.615 
C 137.529641 114.615 129.596902 117.900848 123.748875 123.748875 
C 117.900848 129.596902 114.615 137.529641 114.615 145.8 
C 114.615 154.070359 117.900848 162.003098 123.748875 167.851125 
C 129.596902 173.699152 137.529641 176.985 145.8 176.985 
z
" style="fill: #fc9065; stroke: #fc9065; stroke-linejoin: miter"/>
   </g>
   <g id="patch_9">
    <path d="M 145.8 161.3925 
C 149.935179 161.3925 153.901549 159.749576 156.825562 156.825562 
C 159.749576 153.901549 161.3925 149.935179 161.3925 145.8 
C 161.3925 141.664821 159.749576 137.698451 156.825562 134.774438 
C 153.901549 131.850424 149.935179 130.2075 145.8 130.2075 
C 141.664821 130.2075 137.698451 131.850424 134.774438 134.774438 
C 131.850424 137.698451 130.2075 141.664821 130.2075 145.8 
C 130.2075 149.935179 131.850424 153.901549 134.774438 156.825562 
C 137.698451 159.749576 141.664821 161.3925 145.8 161.3925 
z
" clip-path="url(#pa5e5481e16)" style="fill: #ffffff"/>
   </g>
   <g id="patch_10">
    <path d="M 145.8 161.3925 
C 149.935179 161.3925 153.901549 159.749576 156.825562 156.825562 
C 159.749576 153.901549 161.3925 149.935179 161.3925 145.8 
C 161.3925 141.664821 159.749576 137.698451 156.825562 134.774438 
C 153.901549 131.850424 149.935179 130.2075 145.8 130.2075 
C 141.664821 130.2075 137.698451 131.850424 134.774438 134.774438 
C 131.850424 137.698451 130.2075 141.664821 130.2075 145.8 
C 130.2075 149.935179 131.850424 153.901549 134.774438 156.825562 
C 137.698451 159.749576 141.664821 161.3925 145.8 161.3925 
z
" style="fill: #fde7a9; stroke: #fde7a9; stroke-linejoin: miter"/>
   </g>
   <g id="patch_11">
    <path d="M 31.770435 211.635 
L 31.770435 79.965 
L 145.8 14.13 
L 145.8 73.728145 
L 145.655567 73.728145 
L 145.366701 73.729303 
L 145.077836 73.731618 
L 144.78897 73.735092 
L 144.500104 73.739723 
L 144.211238 73.745514 
L 143.922373 73.752462 
L 143.633507 73.76057 
L 143.344641 73.769837 
L 143.055776 73.780264 
L 142.76691 73.791851 
L 142.478044 73.804599 
L 142.189178 73.818508 
L 141.900313 73.83358 
L 141.611447 73.849814 
L 141.322581 73.867213 
L 141.033715 73.885775 
L 140.74485 73.905503 
L 140.455984 73.926398 
L 140.167118 73.94846 
L 139.878253 73.97169 
L 139.589387 73.99609 
L 139.300521 74.021661 
L 139.011655 74.048404 
L 138.72279 74.07632 
L 138.433924 74.105411 
L 138.145058 74.135678 
L 137.856192 74.167123 
L 137.567327 74.199747 
L 137.278461 74.233551 
L 136.989595 74.268539 
L 136.700729 74.30471 
L 136.411864 74.342068 
L 136.122998 74.380613 
L 135.834132 74.420348 
L 135.545267 74.461275 
L 135.256401 74.503396 
L 134.967535 74.546713 
L 134.678669 74.591228 
L 134.389804 74.636944 
L 134.100938 74.683862 
L 133.812072 74.731985 
L 133.523206 74.781316 
L 133.234341 74.831857 
L 132.945475 74.88361 
L 132.656609 74.936579 
L 132.367743 74.990766 
L 132.078878 75.046173 
L 131.790012 75.102805 
L 131.501146 75.160663 
L 131.212281 75.21975 
L 130.923415 75.280071 
L 130.634549 75.341627 
L 130.345683 75.404423 
L 130.056818 75.468461 
L 129.767952 75.533745 
L 129.479086 75.600278 
L 129.19022 75.668064 
L 128.901355 75.737107 
L 128.612489 75.80741 
L 128.323623 75.878977 
L 128.034758 75.951812 
L 127.745892 76.025919 
L 127.457026 76.101302 
L 127.16816 76.177965 
L 126.879295 76.255913 
L 126.590429 76.335149 
L 126.301563 76.415678 
L 126.012697 76.497505 
L 125.723832 76.580634 
L 125.434966 76.66507 
L 125.1461 76.750817 
L 124.857234 76.837882 
L 124.568369 76.926268 
L 124.279503 77.01598 
L 123.990637 77.107025 
L 123.701772 77.199406 
L 123.412906 77.29313 
L 123.12404 77.388203 
L 122.835174 77.484629 
L 122.546309 77.582414 
L 122.257443 77.681565 
L 121.968577 77.782087 
L 121.679711 77.883987 
L 121.390846 77.98727 
L 121.10198 78.091943 
L 120.813114 78.198012 
L 120.524248 78.305485 
L 120.235383 78.414367 
L 119.946517 78.524666 
L 119.657651 78.636388 
L 119.368786 78.749541 
L 119.07992 78.864131 
L 118.791054 78.980167 
L 118.502188 79.097656 
L 118.213323 79.216606 
L 117.924457 79.337023 
L 117.635591 79.458917 
L 117.346725 79.582296 
L 117.05786 79.707167 
L 116.768994 79.83354 
L 116.480128 79.961422 
L 116.191263 80.090824 
L 115.902397 80.221753 
L 115.613531 80.354219 
L 115.324665 80.488231 
L 115.0358 80.623799 
L 114.746934 80.760933 
L 114.458068 80.899642 
L 114.169202 81.039936 
L 113.880337 81.181827 
L 113.591471 81.325324 
L 113.302605 81.470438 
L 113.013739 81.617181 
L 112.724874 81.765562 
L 112.436008 81.915595 
L 112.147142 82.06729 
L 111.858277 82.220659 
L 111.569411 82.375715 
L 111.280545 82.532469 
L 110.991679 82.690936 
L 110.702814 82.851126 
L 110.413948 83.013055 
L 110.125082 83.176734 
L 109.836216 83.342179 
L 109.547351 83.509402 
L 109.258485 83.678419 
L 108.969619 83.849243 
L 108.680754 84.021891 
L 108.391888 84.196377 
L 108.103022 84.372717 
L 107.814156 84.550928 
L 107.525291 84.731024 
L 107.236425 84.913024 
L 106.947559 85.096944 
L 106.658693 85.282802 
L 106.369828 85.470615 
L 106.080962 85.660402 
L 105.792096 85.852183 
L 105.50323 86.045975 
L 105.214365 86.241798 
L 104.925499 86.439674 
L 104.636633 86.639621 
L 104.347768 86.841662 
L 104.058902 87.045818 
L 103.770036 87.252111 
L 103.48117 87.460564 
L 103.192305 87.671199 
L 102.903439 87.884042 
L 102.614573 88.099115 
L 102.325707 88.316445 
L 102.036842 88.536057 
L 101.747976 88.757977 
L 101.45911 88.982233 
L 101.170244 89.208851 
L 100.881379 89.437862 
L 100.592513 89.669293 
L 100.303647 89.903175 
L 100.014782 90.139539 
L 99.725916 90.378416 
L 99.43705 90.61984 
L 99.148184 90.863844 
L 98.859319 91.110462 
L 98.570453 91.359729 
L 98.281587 91.611684 
L 97.992721 91.866362 
L 97.703856 92.123803 
L 97.41499 92.384047 
L 97.126124 92.647136 
L 96.837259 92.91311 
L 96.548393 93.182015 
L 96.259527 93.453895 
L 95.970661 93.728797 
L 95.681796 94.006769 
L 95.39293 94.287861 
L 95.104064 94.572124 
L 94.815198 94.859611 
L 94.526333 95.150378 
L 94.237467 95.44448 
L 93.948601 95.741977 
L 93.659735 96.04293 
L 93.37087 96.347402 
L 93.082004 96.655457 
L 92.793138 96.967165 
L 92.504273 97.282595 
L 92.215407 97.60182 
L 91.926541 97.924917 
L 91.637675 98.251964 
L 91.34881 98.583043 
L 91.059944 98.91824 
L 90.771078 99.257644 
L 90.482212 99.601347 
L 90.193347 99.949446 
L 89.904481 100.302043 
L 89.615615 100.659241 
L 89.326749 101.021153 
L 89.037884 101.387892 
L 88.749018 101.759579 
L 88.460152 102.136342 
L 88.171287 102.518311 
L 87.882421 102.905627 
L 87.593555 103.298436 
L 87.304689 103.696891 
L 87.015824 104.101154 
L 86.726958 104.511395 
L 86.438092 104.927796 
L 86.149226 105.350545 
L 85.860361 105.779845 
L 85.571495 106.215908 
L 85.282629 106.65896 
L 84.993764 107.109242 
L 84.704898 107.567008 
L 84.416032 108.032532 
L 84.127166 108.506103 
L 83.838301 108.988032 
L 83.549435 109.478652 
L 83.260569 109.97832 
L 82.971703 110.48742 
L 82.682838 111.006365 
L 82.393972 111.535605 
L 82.105106 112.075622 
L 81.81624 112.626943 
L 81.527375 113.190142 
L 81.238509 113.765845 
L 80.949643 114.354739 
L 80.660778 114.95758 
L 80.371912 115.575201 
L 80.083046 116.208529 
L 79.79418 116.858594 
L 79.505315 117.526552 
L 79.216449 118.213701 
L 78.927583 118.921513 
L 78.638717 119.651667 
L 78.349852 120.40609 
L 78.060986 121.187012 
L 77.77212 121.997043 
L 77.483255 122.839262 
L 77.194389 123.717353 
L 76.905523 124.63578 
L 76.616657 125.600043 
L 76.327792 126.617053 
L 76.038926 127.695699 
L 75.75006 128.84774 
L 75.461194 130.089315 
L 75.172329 131.443635 
L 74.883463 132.946286 
L 74.594597 134.657119 
L 74.305731 136.692709 
L 74.016866 139.353697 
L 73.728 145.8 
L 74.016866 152.246303 
L 74.305731 154.907291 
L 74.594597 156.942881 
L 74.883463 158.653714 
L 75.172329 160.156365 
L 75.461194 161.510685 
L 75.75006 162.75226 
L 76.038926 163.904301 
L 76.327792 164.982947 
L 76.616657 165.999957 
L 76.905523 166.96422 
L 77.194389 167.882647 
L 77.483255 168.760738 
L 77.77212 169.602957 
L 78.060986 170.412988 
L 78.349852 171.19391 
L 78.638717 171.948333 
L 78.927583 172.678487 
L 79.216449 173.386299 
L 79.505315 174.073448 
L 79.79418 174.741406 
L 80.083046 175.391471 
L 80.371912 176.024799 
L 80.660778 176.64242 
L 80.949643 177.245261 
L 81.238509 177.834155 
L 81.527375 178.409858 
L 81.81624 178.973057 
L 82.105106 179.524378 
L 82.393972 180.064395 
L 82.682838 180.593635 
L 82.971703 181.11258 
L 83.260569 181.62168 
L 83.384307 181.835717 
z
" clip-path="url(#pa5e5481e16)" style="fill: #595959"/>
   </g>
   <g id="patch_12">
    <path d="M 259.829565 211.635 
L 145.8 277.47 
L 31.770435 211.635 
L 83.384307 181.835717 
L 83.549435 182.121348 
L 83.838301 182.611968 
L 84.127166 183.093897 
L 84.416032 183.567468 
L 84.704898 184.032992 
L 84.993764 184.490758 
L 85.282629 184.94104 
L 85.571495 185.384092 
L 85.860361 185.820155 
L 86.149226 186.249455 
L 86.438092 186.672204 
L 86.726958 187.088605 
L 87.015824 187.498846 
L 87.304689 187.903109 
L 87.593555 188.301564 
L 87.882421 188.694373 
L 88.171287 189.081689 
L 88.460152 189.463658 
L 88.749018 189.840421 
L 89.037884 190.212108 
L 89.326749 190.578847 
L 89.615615 190.940759 
L 89.904481 191.297957 
L 90.193347 191.650554 
L 90.482212 191.998653 
L 90.771078 192.342356 
L 91.059944 192.68176 
L 91.34881 193.016957 
L 91.637675 193.348036 
L 91.926541 193.675083 
L 92.215407 193.99818 
L 92.504273 194.317405 
L 92.793138 194.632835 
L 93.082004 194.944543 
L 93.37087 195.252598 
L 93.659735 195.55707 
L 93.948601 195.858023 
L 94.237467 196.15552 
L 94.526333 196.449622 
L 94.815198 196.740389 
L 95.104064 197.027876 
L 95.39293 197.312139 
L 95.681796 197.593231 
L 95.970661 197.871203 
L 96.259527 198.146105 
L 96.548393 198.417985 
L 96.837259 198.68689 
L 97.126124 198.952864 
L 97.41499 199.215953 
L 97.703856 199.476197 
L 97.992721 199.733638 
L 98.281587 199.988316 
L 98.570453 200.240271 
L 98.859319 200.489538 
L 99.148184 200.736156 
L 99.43705 200.98016 
L 99.725916 201.221584 
L 100.014782 201.460461 
L 100.303647 201.696825 
L 100.592513 201.930707 
L 100.881379 202.162138 
L 101.170244 202.391149 
L 101.45911 202.617767 
L 101.747976 202.842023 
L 102.036842 203.063943 
L 102.325707 203.283555 
L 102.614573 203.500885 
L 102.903439 203.715958 
L 103.192305 203.928801 
L 103.48117 204.139436 
L 103.770036 204.347889 
L 104.058902 204.554182 
L 104.347768 204.758338 
L 104.636633 204.960379 
L 104.925499 205.160326 
L 105.214365 205.358202 
L 105.50323 205.554025 
L 105.792096 205.747817 
L 106.080962 205.939598 
L 106.369828 206.129385 
L 106.658693 206.317198 
L 106.947559 206.503056 
L 107.236425 206.686976 
L 107.525291 206.868976 
L 107.814156 207.049072 
L 108.103022 207.227283 
L 108.391888 207.403623 
L 108.680754 207.578109 
L 108.969619 207.750757 
L 109.258485 207.921581 
L 109.547351 208.090598 
L 109.836216 208.257821 
L 110.125082 208.423266 
L 110.413948 208.586945 
L 110.702814 208.748874 
L 110.991679 208.909064 
L 111.280545 209.067531 
L 111.569411 209.224285 
L 111.858277 209.379341 
L 112.147142 209.53271 
L 112.436008 209.684405 
L 112.724874 209.834438 
L 113.013739 209.982819 
L 113.302605 210.129562 
L 113.591471 210.274676 
L 113.880337 210.418173 
L 114.169202 210.560064 
L 114.458068 210.700358 
L 114.746934 210.839067 
L 115.0358 210.976201 
L 115.324665 211.111769 
L 115.613531 211.245781 
L 115.902397 211.378247 
L 116.191263 211.509176 
L 116.480128 211.638578 
L 116.768994 211.76646 
L 117.05786 211.892833 
L 117.346725 212.017704 
L 117.635591 212.141083 
L 117.924457 212.262977 
L 118.213323 212.383394 
L 118.502188 212.502344 
L 118.791054 212.619833 
L 119.07992 212.735869 
L 119.368786 212.850459 
L 119.657651 212.963612 
L 119.946517 213.075334 
L 120.235383 213.185633 
L 120.524248 213.294515 
L 120.813114 213.401988 
L 121.10198 213.508057 
L 121.390846 213.61273 
L 121.679711 213.716013 
L 121.968577 213.817913 
L 122.257443 213.918435 
L 122.546309 214.017586 
L 122.835174 214.115371 
L 123.12404 214.211797 
L 123.412906 214.30687 
L 123.701772 214.400594 
L 123.990637 214.492975 
L 124.279503 214.58402 
L 124.568369 214.673732 
L 124.857234 214.762118 
L 125.1461 214.849183 
L 125.434966 214.93493 
L 125.723832 215.019366 
L 126.012697 215.102495 
L 126.301563 215.184322 
L 126.590429 215.264851 
L 126.879295 215.344087 
L 127.16816 215.422035 
L 127.457026 215.498698 
L 127.745892 215.574081 
L 128.034758 215.648188 
L 128.323623 215.721023 
L 128.612489 215.79259 
L 128.901355 215.862893 
L 129.19022 215.931936 
L 129.479086 215.999722 
L 129.767952 216.066255 
L 130.056818 216.131539 
L 130.345683 216.195577 
L 130.634549 216.258373 
L 130.923415 216.319929 
L 131.212281 216.38025 
L 131.501146 216.439337 
L 131.790012 216.497195 
L 132.078878 216.553827 
L 132.367743 216.609234 
L 132.656609 216.663421 
L 132.945475 216.71639 
L 133.234341 216.768143 
L 133.523206 216.818684 
L 133.812072 216.868015 
L 134.100938 216.916138 
L 134.389804 216.963056 
L 134.678669 217.008772 
L 134.967535 217.053287 
L 135.256401 217.096604 
L 135.545267 217.138725 
L 135.834132 217.179652 
L 136.122998 217.219387 
L 136.411864 217.257932 
L 136.700729 217.29529 
L 136.989595 217.331461 
L 137.278461 217.366449 
L 137.567327 217.400253 
L 137.856192 217.432877 
L 138.145058 217.464322 
L 138.433924 217.494589 
L 138.72279 217.52368 
L 139.011655 217.551596 
L 139.300521 217.578339 
L 139.589387 217.60391 
L 139.878253 217.62831 
L 140.167118 217.65154 
L 140.455984 217.673602 
L 140.74485 217.694497 
L 141.033715 217.714225 
L 141.322581 217.732787 
L 141.611447 217.750186 
L 141.900313 217.76642 
L 142.189178 217.781492 
L 142.478044 217.795401 
L 142.76691 217.808149 
L 143.055776 217.819736 
L 143.344641 217.830163 
L 143.633507 217.83943 
L 143.922373 217.847538 
L 144.211238 217.854486 
L 144.500104 217.860277 
L 144.78897 217.864908 
L 145.077836 217.868382 
L 145.366701 217.870697 
L 145.655567 217.871855 
L 145.944433 217.871855 
L 146.233299 217.870697 
L 146.522164 217.868382 
L 146.81103 217.864908 
L 147.099896 217.860277 
L 147.388762 217.854486 
L 147.677627 217.847538 
L 147.966493 217.83943 
L 148.255359 217.830163 
L 148.544224 217.819736 
L 148.83309 217.808149 
L 149.121956 217.795401 
L 149.410822 217.781492 
L 149.699687 217.76642 
L 149.988553 217.750186 
L 150.277419 217.732787 
L 150.566285 217.714225 
L 150.85515 217.694497 
L 151.144016 217.673602 
L 151.432882 217.65154 
L 151.721747 217.62831 
L 152.010613 217.60391 
L 152.299479 217.578339 
L 152.588345 217.551596 
L 152.87721 217.52368 
L 153.166076 217.494589 
L 153.454942 217.464322 
L 153.743808 217.432877 
L 154.032673 217.400253 
L 154.321539 217.366449 
L 154.610405 217.331461 
L 154.899271 217.29529 
L 155.188136 217.257932 
L 155.477002 217.219387 
L 155.765868 217.179652 
L 156.054733 217.138725 
L 156.343599 217.096604 
L 156.632465 217.053287 
L 156.921331 217.008772 
L 157.210196 216.963056 
L 157.499062 216.916138 
L 157.787928 216.868015 
L 158.076794 216.818684 
L 158.365659 216.768143 
L 158.654525 216.71639 
L 158.943391 216.663421 
L 159.232257 216.609234 
L 159.521122 216.553827 
L 159.809988 216.497195 
L 160.098854 216.439337 
L 160.387719 216.38025 
L 160.676585 216.319929 
L 160.965451 216.258373 
L 161.254317 216.195577 
L 161.543182 216.131539 
L 161.832048 216.066255 
L 162.120914 215.999722 
L 162.40978 215.931936 
L 162.698645 215.862893 
L 162.987511 215.79259 
L 163.276377 215.721023 
L 163.565242 215.648188 
L 163.854108 215.574081 
L 164.142974 215.498698 
L 164.43184 215.422035 
L 164.720705 215.344087 
L 165.009571 215.264851 
L 165.298437 215.184322 
L 165.587303 215.102495 
L 165.876168 215.019366 
L 166.165034 214.93493 
L 166.4539 214.849183 
L 166.742766 214.762118 
L 167.031631 214.673732 
L 167.320497 214.58402 
L 167.609363 214.492975 
L 167.898228 214.400594 
L 168.187094 214.30687 
L 168.47596 214.211797 
L 168.764826 214.115371 
L 169.053691 214.017586 
L 169.342557 213.918435 
L 169.631423 213.817913 
L 169.920289 213.716013 
L 170.209154 213.61273 
L 170.49802 213.508057 
L 170.786886 213.401988 
L 171.075752 213.294515 
L 171.364617 213.185633 
L 171.653483 213.075334 
L 171.942349 212.963612 
L 172.231214 212.850459 
L 172.52008 212.735869 
L 172.808946 212.619833 
L 173.097812 212.502344 
L 173.386677 212.383394 
L 173.675543 212.262977 
L 173.964409 212.141083 
L 174.253275 212.017704 
L 174.54214 211.892833 
L 174.831006 211.76646 
L 175.119872 211.638578 
L 175.408737 211.509176 
L 175.697603 211.378247 
L 175.986469 211.245781 
L 176.275335 211.111769 
L 176.5642 210.976201 
L 176.853066 210.839067 
L 177.141932 210.700358 
L 177.430798 210.560064 
L 177.719663 210.418173 
L 178.008529 210.274676 
L 178.297395 210.129562 
L 178.586261 209.982819 
L 178.875126 209.834438 
L 179.163992 209.684405 
L 179.452858 209.53271 
L 179.741723 209.379341 
L 180.030589 209.224285 
L 180.319455 209.067531 
L 180.608321 208.909064 
L 180.897186 208.748874 
L 181.186052 208.586945 
L 181.474918 208.423266 
L 181.763784 208.257821 
L 182.052649 208.090598 
L 182.341515 207.921581 
L 182.630381 207.750757 
L 182.919246 207.578109 
L 183.208112 207.403623 
L 183.496978 207.227283 
L 183.785844 207.049072 
L 184.074709 206.868976 
L 184.363575 206.686976 
L 184.652441 206.503056 
L 184.941307 206.317198 
L 185.230172 206.129385 
L 185.519038 205.939598 
L 185.807904 205.747817 
L 186.09677 205.554025 
L 186.385635 205.358202 
L 186.674501 205.160326 
L 186.963367 204.960379 
L 187.252232 204.758338 
L 187.541098 204.554182 
L 187.829964 204.347889 
L 188.11883 204.139436 
L 188.407695 203.928801 
L 188.696561 203.715958 
L 188.985427 203.500885 
L 189.274293 203.283555 
L 189.563158 203.063943 
L 189.852024 202.842023 
L 190.14089 202.617767 
L 190.429756 202.391149 
L 190.718621 202.162138 
L 191.007487 201.930707 
L 191.296353 201.696825 
L 191.585218 201.460461 
L 191.874084 201.221584 
L 192.16295 200.98016 
L 192.451816 200.736156 
L 192.740681 200.489538 
L 193.029547 200.240271 
L 193.318413 199.988316 
L 193.607279 199.733638 
L 193.896144 199.476197 
L 194.18501 199.215953 
L 194.473876 198.952864 
L 194.762741 198.68689 
L 195.051607 198.417985 
L 195.340473 198.146105 
L 195.629339 197.871203 
L 195.918204 197.593231 
L 196.20707 197.312139 
L 196.495936 197.027876 
L 196.784802 196.740389 
L 197.073667 196.449622 
L 197.362533 196.15552 
L 197.651399 195.858023 
L 197.940265 195.55707 
L 198.22913 195.252598 
L 198.517996 194.944543 
L 198.806862 194.632835 
L 199.095727 194.317405 
L 199.384593 193.99818 
L 199.673459 193.675083 
L 199.962325 193.348036 
L 200.25119 193.016957 
L 200.540056 192.68176 
L 200.828922 192.342356 
L 201.117788 191.998653 
L 201.406653 191.650554 
L 201.695519 191.297957 
L 201.984385 190.940759 
L 202.273251 190.578847 
L 202.562116 190.212108 
L 202.850982 189.840421 
L 203.139848 189.463658 
L 203.428713 189.081689 
L 203.717579 188.694373 
L 204.006445 188.301564 
L 204.295311 187.903109 
L 204.584176 187.498846 
L 204.873042 187.088605 
L 205.161908 186.672204 
L 205.450774 186.249455 
L 205.739639 185.820155 
L 206.028505 185.384092 
L 206.317371 184.94104 
L 206.606236 184.490758 
L 206.895102 184.032992 
L 207.183968 183.567468 
L 207.472834 183.093897 
L 207.761699 182.611968 
L 208.050565 182.121348 
L 208.215693 181.835717 
z
" clip-path="url(#pa5e5481e16)" style="fill: #666666; fill-opacity: 0.4"/>
   </g>
   <g id="patch_13">
    <path d="M 145.8 14.13 
L 31.770435 79.965 
L 31.770435 211.635 
L 145.8 277.47 
L 259.829565 211.635 
L 259.829565 79.965 
L 145.8 14.13 
z
" style="fill: none; stroke: #595959; stroke-width: 13"/>
   </g>
   <g id="matplotlib.axis_1">
    <g id="xtick_1"/>
    <g id="xtick_2"/>
    <g id="xtick_3"/>
   </g>
   <g id="matplotlib.axis_2">
    <g id="ytick_1"/>
    <g id="ytick_2"/>
    <g id="ytick_3"/>
   </g>
  </g>
 </g>
 <defs>
  <clipPath id="pa5e5481e16">
   <rect x="7.2" y="7.2" width="277.2" height="277.2"/>
  </clipPath>
 </defs>
</svg>
